<svg id="Layer_1" data-name="Layer 1" xmlns="http://www.w3.org/2000/svg" width="172.525" height="168.512" viewBox="0 0 172.525 168.512">
  <path id="Path_39" data-name="Path 39" d="M251.68,336.927a.963.963,0,0,0,.221-.971.927.927,0,0,0-.847-.75.8.8,0,0,0-.558.116,94.62,94.62,0,0,0-17.843,7.756c-2.809,1.6-5.381,3.535-8.161,5.172-2.379,1.4-5.156,2.271-7.17,4.221-3.21,3.086-4.068,9.016.185,11.616,4.341,2.656,10.914.622,15.351-.738a53.929,53.929,0,0,0,17.618-9.309c.726-.574.08-1.689-.71-1.713a58.859,58.859,0,0,0-15.821,1.649,180.091,180.091,0,0,0,17.734-17.048Z" transform="translate(-128.532 -200.705)" fill="#e5a024"/>
  <path id="Path_40" data-name="Path 40" d="M52.31,297.331a201.638,201.638,0,0,0-3.635-21.2q-1.416-6.263-3.342-12.394a32.754,32.754,0,0,0-1.42-3.679c-.429-.951-1.5-2.652-1.328-3.76a.963.963,0,0,0-.907-1.236.8.8,0,0,0-1.027.7,111.888,111.888,0,0,0-3.041,46.6A63.066,63.066,0,0,0,1.321,280.443,1.015,1.015,0,0,0,.189,281.9a86.08,86.08,0,0,0,25.96,27.476,36.083,36.083,0,0,0-15.893,5.97,1.019,1.019,0,0,0,.221,1.862,58.618,58.618,0,0,0,22.276,3.928c5.617-.156,13.847,1.332,17.73-3.96,1.834-2.5,2.09-5.9,2.263-8.9a63.753,63.753,0,0,0-.437-10.95Z" transform="translate(-0.075 -152.703)" fill="#eae2c2"/>
  <path id="Path_41" data-name="Path 41" d="M223.031,327.965a170.754,170.754,0,0,0-17.7,5.437,82.625,82.625,0,0,0,17.931-20.25,1.015,1.015,0,0,0-1.131-1.473,82.314,82.314,0,0,0-21.526,11.006c1-1.81,1.87-3.7,2.809-5.493,2.472-4.815,5.015-9.445,6.5-14.693l.1-.353a1.011,1.011,0,0,0-1.677-.975c-5.669,4.815-11.235,9.541-15.648,15.572a64.653,64.653,0,0,0-6.087,9.108,25.462,25.462,0,0,0-2.086,9.5c-.144,1.958-.213,3.92-.325,5.878a6.13,6.13,0,0,0,.369,3.459c1.348,2.343,5.99,1.85,8.217,1.918a64,64,0,0,0,22.256-3.374,1.007,1.007,0,0,0-.265-1.97l-8.241-.325a54.167,54.167,0,0,0,17.49-11.291A1.015,1.015,0,0,0,223.031,327.965Z" transform="translate(-110.271 -180.175)" fill="#cf4327"/>
  <path id="Path_42" data-name="Path 42" d="M151.71,215.2a46.237,46.237,0,0,0-7.623-15.849,30.02,30.02,0,0,0-5.481-5.557c-1.16-.891-2.407-1.633-3.631-2.407a33.09,33.09,0,0,0,9.955-13.164c1.577-3.884,1.372-9.409-3.816-9.979-4.313-.473-8.791,2.488-12.1,4.907a43.056,43.056,0,0,0-10.581,11.154c-6.319,9.63-8.458,21.346-8.851,32.7-.349,10.031-.831,23.336,6.6,31.216,4.289,4.55,11.471,6.243,17.518,5.645a22.634,22.634,0,0,0,16.479-9.83C155.614,235.648,154.266,224.337,151.71,215.2Z" transform="translate(-65.548 -100.71)" fill="#3b301b"/>
  <path id="Path_43" data-name="Path 43" d="M200.316,167.442a6.5,6.5,0,0,0-2.211-.261,6.74,6.74,0,0,0-.285-2.508c-.381-1.232-2.315-.706-1.934.534a4.815,4.815,0,0,1,0,2.937,1.011,1.011,0,0,0,1.236,1.236,4.5,4.5,0,0,1,2.664,0C201.01,169.745,201.519,167.807,200.316,167.442Z" transform="translate(-117.291 -98.182)" fill="#cf4327"/>
  <path id="Path_44" data-name="Path 44" d="M152.45,195.164c2.106,2.082,6.018,3.94,8.169.8,1.814-2.66-.477-5.906-2.564-7.623-.991-.8-2.407.6-1.42,1.42,1.2.971,3.045,2.829,2.576,4.546-.774,2.841-4.213.538-5.344-.578-.919-.907-2.339.51-1.42,1.42Z" transform="translate(-91.132 -112.631)" fill="#cf4327"/>
  <path id="Path_45" data-name="Path 45" d="M102.2,125a31.879,31.879,0,0,0-3.667-7.535c-1.272-1.81-2.58-3.924-4.606-4.963a1.019,1.019,0,0,0-1.473.6c-1.822,5.336-.754,11.427.61,16.747a42.205,42.205,0,0,0,4.369,10.7,49.753,49.753,0,0,0-10.207-5.485A33.59,33.59,0,0,0,78.4,132.6c-2.175-.233-4.67-.646-6.761.2a1.019,1.019,0,0,0-.582,1.481c2.7,4.65,7.623,7.748,12.3,10.159a42.731,42.731,0,0,0,18.409,4.851c1.268.04,1.288-1.894.06-2.006l.052-.835a.991.991,0,0,0,.883-.473.951.951,0,0,0,.193-.626,1,1,0,0,0-.165-.542l.666-.5a1.039,1.039,0,0,0,1.814-.618A49.665,49.665,0,0,0,102.2,125Z" transform="translate(-42.497 -67.283)" fill="#3b301b"/>
  <path id="Path_46" data-name="Path 46" d="M188.99,196.458c-1.633-4.482-3.346-8.935-4.943-13.433a14.264,14.264,0,0,0,4.161-3.134c.871-.951-.546-2.375-1.42-1.42a12.57,12.57,0,0,1-3.414,2.652v-.04a12.788,12.788,0,0,0,3.583-3.338c.762-1.043-.975-2.046-1.733-1.011a10.291,10.291,0,0,1-2.993,2.724,16.928,16.928,0,0,0,2.66-3.262c.686-1.1-1.047-2.106-1.733-1.011a14.605,14.605,0,0,1-3.8,4.081,2.6,2.6,0,0,0-1.769,3.483c1.456,4.281,3.061,8.53,4.666,12.759.646,1.737,1.168,3.575,1.87,5.3a6.34,6.34,0,0,1-.746-.068c-2.965-.742-5.746-2.2-8.675-3.1a58.872,58.872,0,0,0-12.839-2.736c-3.864-.3-3.844,5.726,0,6.018a53.682,53.682,0,0,1,14.087,3.423c3.354,1.236,6.841,3.274,10.552,2.407a4.818,4.818,0,0,0,3.9-3.86C190.792,200.679,189.736,198.5,188.99,196.458Z" transform="translate(-95.22 -104.613)" fill="#3b301b"/>
  <path id="Path_47" data-name="Path 47" d="M63.364,246.15a8.908,8.908,0,0,0-1.356.353,7.519,7.519,0,0,1-3.419-.124,13.1,13.1,0,0,1-4.321-2.227,17.329,17.329,0,0,1-6.111-7.872c-3.884-11.812-.742-24.407-3.358-36.416a28.093,28.093,0,0,0-6.356-13.02c-3.715-4.069-8.827-6.018-14.123-7.154a1,1,0,0,0-.534,1.934c2.271.654.883,7.5.6,9.072-.8,4.486-3.037,8.522-4.562,12.783a50.281,50.281,0,0,0-.8,32.5c3.106,9.341,9.389,18.742,18.625,22.87a22.242,22.242,0,0,0,24.965-4.1c1.477-1.416,3.033-3.254,3.266-5.368C66.08,247.647,65.246,246.066,63.364,246.15Z" transform="translate(-10.03 -107.577)" fill="#3b301b"/>
  <path id="Path_48" data-name="Path 48" d="M145.3,377.3h-.518a3.21,3.21,0,0,0,.116-.871q0-9.5,0-18.99c0-3.872-6.018-3.88-6.018,0v18.99a2.9,2.9,0,0,0,3.459,2.877H145.3A1,1,0,0,0,145.3,377.3Z" transform="translate(-83.187 -212.285)" fill="#3b301b"/>
  <path id="Path_49" data-name="Path 49" d="M187.73,377.3h-.678a3.211,3.211,0,0,0,.116-.871v-18.99c0-3.872-6.018-3.88-6.018,0v18.99a2.9,2.9,0,0,0,3.459,2.877h3.122A1,1,0,0,0,187.73,377.3Z" transform="translate(-108.497 -212.285)" fill="#3b301b"/>
  <path id="Path_50" data-name="Path 50" d="M177.768,292.333c3.968-6.4,3.643-14.529,2.283-21.667a62.592,62.592,0,0,0-2.869-10.432c-1.18-3.106-3.013-6.869-6.255-8.265-2.632-1.135-6.343.064-8.426,1.87-2.544,2.207-2.985,5.866-2.785,9.036.3,4.815,1.657,9.533,1.978,14.372a48.327,48.327,0,0,1,0,6.757c-.16,2.195-.831,4.442-.686,6.652a6.945,6.945,0,0,0,6.42,6.464c4.012.429,7.543-1.814,10.2-4.606h0a1.133,1.133,0,0,0,.076-.1c0-.02.036-.044.048-.064Z" transform="translate(-95.638 -150.606)" fill="#eae2c2"/>
  <path id="Path_51" data-name="Path 51" d="M158.649,272.356a1.023,1.023,0,0,0-1.236-.7,5.314,5.314,0,0,1-1.252.1,2.808,2.808,0,0,0-.04-.6A6.982,6.982,0,0,0,157.995,270a1.011,1.011,0,0,0,0-1.42,1.023,1.023,0,0,0-1.42,0,4.386,4.386,0,0,1-1.464.8,3.307,3.307,0,0,0-1.031-.618,1.878,1.878,0,0,1,.774-1.272c1.059-.726.056-2.464-1.011-1.733a3.924,3.924,0,0,0-1.745,3.077,10.046,10.046,0,0,1-11.6-3.559,38.563,38.563,0,0,1-3.82-8.426,35.85,35.85,0,0,1-1.982-9.341c-.269-3.844-6.291-3.872-6.018,0a42.153,42.153,0,0,0,2.532,11.9c1.312,3.5,2.764,7.423,5.144,10.348a16.127,16.127,0,0,0,16.735,5.088,5.838,5.838,0,0,0,2.195,1.14,1,1,0,0,0,.534-1.934,4.073,4.073,0,0,1-.666-.245l.132-.148a7.848,7.848,0,0,0,2.652-.08,1.015,1.015,0,0,0,.714-1.224Z" transform="translate(-77.072 -146.47)" fill="#3b301b"/>
  <path id="Path_52" data-name="Path 52" d="M320.07.86c-2.965-1.858-6.335-.5-8.253,2.159a11,11,0,0,0-1.934,7.511c-1.95-1.974-4.209-3.647-7.1-3.17a5.1,5.1,0,0,0-3.96,7.042c2.985,7.383,12.976,8.173,19.063,11.6a1.015,1.015,0,0,0,1.5-.867,1.126,1.126,0,0,0,.1-.2,62.591,62.591,0,0,0,3.856-14.147C323.834,7.223,323.437,2.982,320.07.86Z" transform="translate(-178.71 -0.002)" fill="#cf4327"/>
  <path id="Path_53" data-name="Path 53" d="M345.348,74.494c-1.489-3.394-6.392.879-8.887,3.467V61.606a.754.754,0,0,0-1.5,0V78.859c-2.046-1.749-6.693-5.5-7.138-1.886-.457,3.711,4.731,4.875,7.359,5.324a.762.762,0,0,0,.75-.289.751.751,0,0,0,.261-.04,25.958,25.958,0,0,0,7.1-3.278C344.461,77.8,346.058,76.111,345.348,74.494ZM329.76,78.418a1.918,1.918,0,0,1-.4-.8q.213-.963.8-.333a5.557,5.557,0,0,1,1.408.911,37.2,37.2,0,0,1,3.086,2.347.774.774,0,0,0,.345.169v.024c-1.89-.309-4.109-.746-5.236-2.315Zm10.974.052a34.685,34.685,0,0,1-4.273,1.806V80.2a22.025,22.025,0,0,1,3.057-3.065c.51-.4,4.289-3.362,4.454-1.6.116,1.252-2.3,2.456-3.234,2.937Z" transform="translate(-196.3 -36.47)" fill="#3b301b"/>
  <path id="Path_54" data-name="Path 54" d="M340.876,121.468q-2.006-7.876-4.2-15.7a1.011,1.011,0,0,0-.967-.738,54.211,54.211,0,0,0-6.564,1.424l-9.63,2.3-9.228,2.207-4.614,1.1a5.12,5.12,0,0,0-2.648.991.987.987,0,0,0-.257.975c1.565,4.193,2.961,8.426,4.161,12.751.325,1.168.4,3.435,1.392,4.2s3.523-.2,4.706-.433a180.957,180.957,0,0,0,26.546-7.07.991.991,0,0,0,.674-.855.955.955,0,0,0,.634-1.152Z" transform="translate(-181.292 -62.889)" fill="#eae2c2"/>
  <path id="Path_55" data-name="Path 55" d="M341.289,120.979a40.954,40.954,0,0,0-6.191-3.423l1.18-2.1a34.322,34.322,0,0,1,3.35-5.653c.843-.971-.574-2.407-1.42-1.42a26.852,26.852,0,0,0-2.769,4.478c-1.308,2.311-2.588,4.642-3.96,6.917a26.021,26.021,0,0,1-1.6,2.512c-.12.152-.357.566-.522.61.449-.116-1.81-1.007-.879-.59-.465-.209-.971-.353-1.448-.53l-14.484-5.3c-1.2-.445-1.737,1.493-.534,1.934L322.03,122.1a49.372,49.372,0,0,0-2.52,4.494c-.57,1.156,1.16,2.171,1.733,1.011a49.367,49.367,0,0,1,2.712-4.815l3.579,1.308c1.119.4,2.058,1.067,3.09.293a7.489,7.489,0,0,0,1.485-1.89c.7-1.047,1.344-2.127,1.978-3.21a40.966,40.966,0,0,1,6.171,3.414C341.337,123.435,342.344,121.7,341.289,120.979Z" transform="translate(-186.443 -64.699)" fill="#e5a024"/>
  <path id="Path_56" data-name="Path 56" d="M307.43,25.385a4.3,4.3,0,0,0-.606,3.186,1.011,1.011,0,0,0,1.224.7,1.027,1.027,0,0,0,.7-1.236,2.239,2.239,0,0,1,.4-1.641,1,1,0,0,0-1.721-1.011Z" transform="translate(-183.696 -14.954)" fill="#eae2c2"/>
  <path id="Path_57" data-name="Path 57" d="M338.208,6.738a5.533,5.533,0,0,0-2.3,6.271c.4,1.228,2.323.7,1.934-.534a3.487,3.487,0,0,1,1.376-4.012c1.075-.706.072-2.444-1.011-1.733Z" transform="translate(-201.016 -3.931)" fill="#eae2c2"/>
  <path id="Path_58" data-name="Path 58" d="M382.093,83.668a41.681,41.681,0,0,1,2.768-5.433,1,1,0,0,0-1.733-1.011,45.14,45.14,0,0,0-2.969,5.9c-.5,1.2,1.444,1.709,1.934.534Z" transform="translate(-227.609 -45.953)" fill="#cf4327"/>
  <path id="Path_59" data-name="Path 59" d="M394.426,90.9l4.534-3.76c1-.827-.429-2.239-1.42-1.42l-4.534,3.76C392.011,90.308,393.435,91.72,394.426,90.9Z" transform="translate(-235.147 -51.181)" fill="#cf4327"/>
  <path id="Path_60" data-name="Path 60" d="M398.554,108.786H403.1a1,1,0,0,0,0-2.006h-4.546A1,1,0,0,0,398.554,108.786Z" transform="translate(-238.091 -63.937)" fill="#cf4327"/>
  <path id="Path_61" data-name="Path 61" d="M107.139,364.159c-.12-5.617-.373-10.954-2.042-16.358a.939.939,0,0,0-.654-.658.883.883,0,0,0-1.091.289.851.851,0,0,0-.2.345,37.716,37.716,0,0,0-4.169,13.578,60.947,60.947,0,0,0-11.078-17.71,1.01,1.01,0,0,0-1.677.441c-.582,3.964.73,7.993,1.954,11.728a69.117,69.117,0,0,0,3.21,8.025,44.675,44.675,0,0,0-9.63-4.012c-.8-.229-1.649.738-1.131,1.473,2.809,3.972,6.067,7.708,10.508,9.874,3.5,1.705,8.265,3.3,12.105,1.8C106.874,371.538,107.211,367.562,107.139,364.159Z" transform="translate(-48.216 -205.593)" fill="#e5a024"/>
  <path id="Path_62" data-name="Path 62" d="M252.629,139.273c-3.029,2.066-7.716,5.36-11.8,5.144a5.449,5.449,0,0,0,.883-3.142c-.1-3.406-4.522-5.617-6.636-2.439-1.685,2.548-.173,5.064,2.066,6.456a22.04,22.04,0,0,1-4.863,2.407c-1.18.481-.666,2.407.534,1.934a24.077,24.077,0,0,0,6.42-3.447,6.261,6.261,0,0,0,.979.173c4.714.445,9.718-2.833,13.429-5.364C254.7,140.284,253.7,138.543,252.629,139.273Zm-15.179.4q.774-.8,1.344.056a1.665,1.665,0,0,1,.907,1.533,3.659,3.659,0,0,1-.8,2.275q-.126.181-.265.349c-1.589-.758-3.406-3.126-1.18-4.2Z" transform="translate(-138.709 -82.211)" fill="#cf4327"/>
  <path id="Path_63" data-name="Path 63" d="M353.663,209.1c-2.941-1.292-6.5-.14-9.228,1.18a28.956,28.956,0,0,0-5.4,3.535,5.08,5.08,0,0,0-.225-2.865c-.923-2.407-3.366-2.993-5.689-2.52-4.67.939-8.931,4.04-12.085,7.724a2.763,2.763,0,0,0-2.616-2.512c-2.6-.213-5.726,2.427-7.194,4.321l-.036.06a1.126,1.126,0,0,0-.12.144c-1.063,1.565-2.074,3.7-1.1,5.553,1.143,2.191,3.984,2.118,6.1,2.155,8.085.128,16.126-.558,24.2-.3,4.911.152,12.474.361,15.885-3.992C359.124,217.779,358.378,211.171,353.663,209.1Z" transform="translate(-185.393 -124.714)" fill="#eae2c2"/>
  <path id="Path_64" data-name="Path 64" d="M186.332,59.986a7.808,7.808,0,0,0-4.109,1.717,7.427,7.427,0,0,0-.112-4.081c-.8-2.139-2.961-2.576-5-2.231a14.778,14.778,0,0,0-9.894,6.877,4.357,4.357,0,0,0-1.757-1.6,5.333,5.333,0,0,0-6.018,1.28,1.023,1.023,0,0,0-.193.185,1.075,1.075,0,0,0-.165.221c-2.981,4.012-.73,8.827,4.2,9.63,3.671.61,7.479.4,11.186.449a72.613,72.613,0,0,0,9.06,0,10.019,10.019,0,0,0,6.548-2.857c1.569-1.749,2.684-4.414,1.705-6.725A5.366,5.366,0,0,0,186.332,59.986Z" transform="translate(-94.479 -33.104)" fill="#eae2c2"/>
  <path id="Path_65" data-name="Path 65" d="M36.934,207.056c1.986,2.127-.626,3.559-2.03,4.835A5.906,5.906,0,0,0,32.9,215.5a3.781,3.781,0,0,0,3.908,4.329c1.28-.084,1.292-2.09,0-2.006-1.7.112-2.171-1.452-1.693-2.829a4.557,4.557,0,0,1,1.6-1.974,9.031,9.031,0,0,0,2.452-2.407,4.243,4.243,0,0,0-.8-4.971c-.883-.947-2.3.473-1.42,1.42Z" transform="translate(-19.711 -122.947)" fill="#eae2c2"/>
  <path id="Path_66" data-name="Path 66" d="M47.289,226.295a2.6,2.6,0,0,0,.522,2.688c.481.594,1.264.847,1.753,1.4,1.168,1.32.112,2.684-.8,3.683-1.232,1.36-4.1,3.535-2.046,5.489.935.891,2.355-.526,1.42-1.42-.518-.494,2.2-2.809,2.488-3.134a5.786,5.786,0,0,0,1.392-2.644,3.635,3.635,0,0,0-.341-2.512c-.4-.73-2.781-2.163-2.444-3.021.469-1.2-1.469-1.725-1.934-.534Z" transform="translate(-27.571 -135.095)" fill="#eae2c2"/>
  <path id="Path_67" data-name="Path 67" d="M25.214,247.582c1.336,1.6-1.537,3.9-2.407,5.132a6.821,6.821,0,0,0-1.364,3.278,3.758,3.758,0,0,0,3.487,4.281c1.288.1,1.28-1.906,0-2.006-2.556-.2-1.2-3.406-.4-4.542.714-1,1.633-1.854,2.275-2.9a3.773,3.773,0,0,0-.185-4.654c-.823-1-2.235.429-1.42,1.42Z" transform="translate(-12.858 -147.195)" fill="#eae2c2"/>
  <path id="Path_68" data-name="Path 68" d="M33.253,268.889c3.262,2.768-.714,5.06-1.256,7.9a3.687,3.687,0,0,0,3.178,4.3c1.264.193,1.806-1.741.534-1.934-3.976-.61.369-4.947.762-6.821a5.076,5.076,0,0,0-1.8-4.875c-.979-.831-2.407.582-1.42,1.42Z" transform="translate(-19.156 -159.992)" fill="#eae2c2"/>
  <path id="Path_69" data-name="Path 69" d="M52.926,272.421a4.008,4.008,0,0,1-.582-4.365c.558-1.107,1.6-1.83,2.319-2.841,1.416-2.058.706-4.1-.453-6.1a1,1,0,0,0-1.733,1.011c1.139,1.962,1.276,3.21-.277,4.883a8.858,8.858,0,0,0-1.773,2.375,5.942,5.942,0,0,0,.766,6.047C51.967,274.443,53.712,273.432,52.926,272.421Z" transform="translate(-29.925 -154.86)" fill="#eae2c2"/>
  <path id="Path_70" data-name="Path 70" d="M58.337,203.119a3.747,3.747,0,0,0,.225,4.345,8.542,8.542,0,0,0,1.794,1.372,2.924,2.924,0,0,1,.245,4.815c-.963.867.461,2.283,1.42,1.42a4.815,4.815,0,0,0,.032-7.479c-1.135-.971-3.065-1.561-1.986-3.463a1,1,0,0,0-1.733-1.011Z" transform="translate(-34.61 -121.329)" fill="#eae2c2"/>
  <path id="Path_71" data-name="Path 71" d="M71.1,241.644c3.266,3.106-2.159,5.93-1.5,9.228.538,2.672,5.36,4.414,2.708,7.623-.8.991.6,2.407,1.42,1.42a5.088,5.088,0,0,0,1.152-4.3c-.353-1.922-1.557-2.688-2.628-4.133s-.317-2.363.514-3.639a8.069,8.069,0,0,0,1.272-2.977,5.035,5.035,0,0,0-1.5-4.638c-.935-.891-2.355.526-1.42,1.42Z" transform="translate(-41.674 -143.672)" fill="#eae2c2"/>
  <path id="Path_72" data-name="Path 72" d="M63.82,285.284c-.7,1.842-1.015,3.611.317,5.216a23.889,23.889,0,0,1,1.922,2.006,3.956,3.956,0,0,1-.04,4.3,1,1,0,0,0,1.733,1.011,6.051,6.051,0,0,0,.554-5.288,6.155,6.155,0,0,0-1.465-2.191c-.4-.425-1.135-.827-1.384-1.372a4.239,4.239,0,0,1,.3-3.142c.457-1.2-1.481-1.729-1.934-.534Z" transform="translate(-37.883 -170.42)" fill="#eae2c2"/>
  <path id="Path_73" data-name="Path 73" d="M47.772,301.671c-1,2.407-1.448,5.168.8,7.014,1.067.887,2.476,1.164,3.571,1.982,1.93,1.448,1.123,3.731.441,5.617-.437,1.2,1.5,1.741,1.934.534.9-2.512,1.525-5.473-.754-7.447-.991-.859-2.275-1.172-3.362-1.866-2.1-1.336-1.489-3.382-.682-5.316.5-1.2-1.444-1.709-1.934-.534Z" transform="translate(-28.142 -180.223)" fill="#eae2c2"/>
  <path id="Path_74" data-name="Path 74" d="M27.35,307.065c-.241,1.838-.333,3.936.915,5.461a5.549,5.549,0,0,0,2.227,1.509c1.533.67,2.64.923,2.612,2.961-.028,2.331-.4,4.494,1.252,6.444a4.875,4.875,0,0,0,5.108,1.6,1,1,0,0,0-.534-1.934c-3.021.831-4.129-2.46-3.944-4.815.124-1.553.357-3.073-.726-4.361-.839-1-2.09-1.256-3.21-1.8-2.058-1.007-1.958-3.041-1.7-5.043.169-1.276-1.842-1.264-2.006,0Z" transform="translate(-16.318 -183.305)" fill="#eae2c2"/>
  <path id="Path_75" data-name="Path 75" d="M76.854,327.474a5.409,5.409,0,0,0,3.828,5.689c1.24.377,1.765-1.561.534-1.934a3.427,3.427,0,0,1-2.355-3.756C79.008,326.194,77,326.206,76.854,327.474Z" transform="translate(-46.033 -195.509)" fill="#eae2c2"/>
  <path id="Path_76" data-name="Path 76" d="M65.119,347.286a4.939,4.939,0,0,0,2.632,3.234c1.806.855,5.292-.281,5.493,2.5.092,1.28,2.1,1.292,2.006,0a4.1,4.1,0,0,0-2.572-3.711c-2.131-.8-4.815.349-5.617-2.56a1,1,0,0,0-1.934.534Z" transform="translate(-39.001 -207.2)" fill="#eae2c2"/>
  <path id="Path_77" data-name="Path 77" d="M112.408,353.7a3.338,3.338,0,0,0,3.17-1.067,1.031,1.031,0,0,0,0-1.42,1.011,1.011,0,0,0-1.42,0,1.352,1.352,0,0,1-1.2.55,1.031,1.031,0,0,0-1.236.7,1.011,1.011,0,0,0,.7,1.236Z" transform="translate(-66.902 -210.122)" fill="#eae2c2"/>
  <path id="Path_78" data-name="Path 78" d="M62.229,365.469a5.088,5.088,0,0,0,5.986,2.644,1,1,0,0,0-.534-1.934,3.1,3.1,0,0,1-3.723-1.721c-.546-1.168-2.275-.152-1.733,1.011Z" transform="translate(-37.226 -217.917)" fill="#eae2c2"/>
  <path id="Path_79" data-name="Path 79" d="M81.853,312.253a2.263,2.263,0,0,1,.8,2.235c-.277,1.26,1.657,1.8,1.934.534a4.277,4.277,0,0,0-1.324-4.185c-.971-.839-2.407.574-1.42,1.42Z" transform="translate(-48.837 -185.966)" fill="#eae2c2"/>
  <path id="Path_80" data-name="Path 80" d="M164.683,267.791l1.6,1.2a1.007,1.007,0,0,0,1.372-.361,1.035,1.035,0,0,0-.361-1.372l-1.6-1.2a1.007,1.007,0,0,0-1.372.361,1.035,1.035,0,0,0,.361,1.372Z" transform="translate(-98.346 -159.226)" fill="#cf4327"/>
  <path id="Path_81" data-name="Path 81" d="M176.246,256.478l1.019,1.8A1,1,0,1,0,179,257.264l-1.019-1.8a1,1,0,1,0-1.733,1.011Z" transform="translate(-105.478 -152.668)" fill="#cf4327"/>
  <path id="Path_82" data-name="Path 82" d="M167.21,286.44H165.2a1,1,0,0,0,0,2.006h2.006A1,1,0,0,0,167.21,286.44Z" transform="translate(-98.369 -171.512)" fill="#cf4327"/>
  <path id="Path_83" data-name="Path 83" d="M180.726,278.5l.8,1.2a1,1,0,1,0,1.733-1.011l-.8-1.2a1,1,0,1,0-1.733,1.011Z" transform="translate(-108.161 -165.853)" fill="#cf4327"/>
  <path id="Path_84" data-name="Path 84" d="M193.868,277.681l-.225,1.4a1.027,1.027,0,0,0,.7,1.236,1.015,1.015,0,0,0,1.236-.7l.225-1.4a1.027,1.027,0,0,0-.7-1.236A1.015,1.015,0,0,0,193.868,277.681Z" transform="translate(-115.958 -165.826)" fill="#cf4327"/>
  <path id="Path_85" data-name="Path 85" d="M170.738,338.05l-1.6,1.2a1.035,1.035,0,0,0-.361,1.372,1.011,1.011,0,0,0,1.372.361l1.6-1.2a1.035,1.035,0,0,0,.361-1.372A1.011,1.011,0,0,0,170.738,338.05Z" transform="translate(-101.01 -202.334)" fill="#cf4327"/>
  <path id="Path_86" data-name="Path 86" d="M181.548,348.417l-.8,1.6a1,1,0,0,0,1.733,1.011l.8-1.6a1,1,0,1,0-1.733-1.011Z" transform="translate(-108.173 -208.323)" fill="#cf4327"/>
  <path id="Path_87" data-name="Path 87" d="M192.808,348.952l.6,1.2a1.011,1.011,0,0,0,1.372.361,1.027,1.027,0,0,0,.361-1.372l-.6-1.2a1.011,1.011,0,0,0-1.372-.361A1.027,1.027,0,0,0,192.808,348.952Z" transform="translate(-115.401 -208.04)" fill="#cf4327"/>
  <path id="Path_88" data-name="Path 88" d="M185.352,330.927l-.606,1.2a1,1,0,0,0,1.733,1.011l.606-1.2a1,1,0,1,0-1.733-1.011Z" transform="translate(-110.568 -197.851)" fill="#cf4327"/>
  <path id="Path_89" data-name="Path 89" d="M171.2,350.937l-.4.8a1,1,0,0,0,1.733,1.011l.4-.8a1,1,0,1,0-1.733-1.011Z" transform="translate(-102.215 -209.832)" fill="#cf4327"/>
  <path id="Path_90" data-name="Path 90" d="M175.557,295.94h-1.4a1,1,0,1,0,0,2.006h1.4a1,1,0,1,0,0-2.006Z" transform="translate(-103.707 -177.2)" fill="#cf4327"/>
  <path id="Path_91" data-name="Path 91" d="M189.808,264.563s.032-.333,0-.177a3.527,3.527,0,0,1,.076-.381q.04-.16.092-.321c0-.04.12-.313.08-.225a1.031,1.031,0,0,0-.361-1.372,1.014,1.014,0,0,0-1.372.361,6.082,6.082,0,0,0-.534,2.115,1.007,1.007,0,0,0,1,1,1.027,1.027,0,0,0,1-1Z" transform="translate(-112.473 -156.857)" fill="#cf4327"/>
  <path id="Path_92" data-name="Path 92" d="M200,290.49l1.2-.67a1,1,0,1,0-1.011-1.733l-1.2.67A1,1,0,1,0,200,290.49Z" transform="translate(-118.885 -172.42)" fill="#cf4327"/>
  <path id="Path_93" data-name="Path 93" d="M202.338,325.779l.534.4a1.007,1.007,0,0,0,.774.1,1.023,1.023,0,0,0,.6-.461,1.011,1.011,0,0,0,.1-.774,1.18,1.18,0,0,0-.461-.6l-.534-.4a1.007,1.007,0,0,0-.774-.1,1.023,1.023,0,0,0-.6.461,1.011,1.011,0,0,0-.1.774A1.179,1.179,0,0,0,202.338,325.779Z" transform="translate(-120.886 -193.947)" fill="#cf4327"/>
  <path id="Path_94" data-name="Path 94" d="M172.652,324.426a4.73,4.73,0,0,0-1.541,1.091,1,1,0,1,0,1.42,1.42c.088-.1.181-.185.277-.273,0,0,.152-.132.064-.06s.108-.076.108-.076a4.066,4.066,0,0,1,.682-.373,1.007,1.007,0,0,0,.361-1.372,1.035,1.035,0,0,0-1.372-.361Z" transform="translate(-102.31 -194.179)" fill="#cf4327"/>
  <path id="Path_95" data-name="Path 95" d="M204.744,303.7l.4-.136a1,1,0,0,0-.534-1.934l-.4.136a1,1,0,0,0,.534,1.934Z" transform="translate(-121.864 -180.583)" fill="#cf4327"/>
  <path id="Path_96" data-name="Path 96" d="M203.446,338.9l.273.8a1,1,0,0,0,1.934-.534l-.273-.8a1,1,0,1,0-1.934.534Z" transform="translate(-121.825 -202.165)" fill="#cf4327"/>
  <path id="Path_97" data-name="Path 97" d="M194.836,334.214l.269.935a1,1,0,1,0,1.934-.534l-.269-.935a1,1,0,1,0-1.934.534Z" transform="translate(-116.67 -199.357)" fill="#cf4327"/>
  <path id="Path_98" data-name="Path 98" d="M126.635,128.13a38.226,38.226,0,0,0,4.9,16.451,1.3,1.3,0,0,0,2.251-1.316,35.2,35.2,0,0,1-4.542-15.135C129.135,126.464,126.527,126.452,126.635,128.13Z" transform="translate(-75.853 -75.97)" fill="#574730"/>
  <path id="Path_99" data-name="Path 99" d="M84.6,173.041a27.814,27.814,0,0,0,16.571,7.335c1.673.148,1.661-2.46,0-2.608A24.913,24.913,0,0,1,86.439,171.2c-1.232-1.14-3.077.7-1.846,1.846Z" transform="translate(-50.439 -102.292)" fill="#574730"/>
  <path id="Path_100" data-name="Path 100" d="M117.989,266.588a74.252,74.252,0,0,1,4.381-39.682c.622-1.557-1.9-2.235-2.516-.694a76.76,76.76,0,0,0-4.381,41.07C115.746,268.935,118.262,268.233,117.989,266.588Z" transform="translate(-68.539 -134.928)" fill="#574730"/>
  <path id="Path_101" data-name="Path 101" d="M131.9,291.142c5.549,5.413,12.6,9.959,20.684,8.956,1.645-.2,1.665-2.809,0-2.608-7.443.927-13.738-3.21-18.858-8.189-1.2-1.172-3.049.67-1.846,1.846Z" transform="translate(-78.759 -173)" fill="#574730"/>
  <path id="Path_102" data-name="Path 102" d="M210.646,201.64q2.492,5.669,5.148,11.267c.718,1.517,2.969.193,2.251-1.316Q215.388,206,212.9,200.324C212.223,198.791,209.976,200.115,210.646,201.64Z" transform="translate(-126.084 -119.54)" fill="#574730"/>
  <path id="Path_103" data-name="Path 103" d="M131.113,381.295a29.563,29.563,0,0,1,1.416-12.278c.534-1.6-1.982-2.279-2.516-.694a31.412,31.412,0,0,0-1.509,12.972C128.661,382.952,131.269,382.968,131.113,381.295Z" transform="translate(-76.892 -220)" fill="#f3bc63"/>
  <path id="Path_104" data-name="Path 104" d="M99.272,361.01a57.291,57.291,0,0,0,6.761,14.147c.923,1.4,3.182.088,2.251-1.316a54.728,54.728,0,0,1-6.5-13.522c-.51-1.6-3.029-.911-2.516.694Z" transform="translate(-59.427 -215.203)" fill="#f3bc63"/>
  <path id="Path_105" data-name="Path 105" d="M97.9,400.214a11.094,11.094,0,0,0,2.72,1.336,1.3,1.3,0,1,0,.694-2.516,8.578,8.578,0,0,1-2.094-1.071,1.3,1.3,0,1,0-1.316,2.251Z" transform="translate(-58.266 -238.181)" fill="#f3bc63"/>
  <path id="Path_106" data-name="Path 106" d="M269.2,352.24l5.649-3.559c1.416-.891.108-3.15-1.316-2.251l-5.649,3.559C266.464,350.88,267.772,353.139,269.2,352.24Z" transform="translate(-160.063 -207.308)" fill="#f3bc63"/>
  <path id="Path_107" data-name="Path 107" d="M274.979,383.773l4.815-1.416a1.306,1.306,0,0,0-.694-2.516l-4.815,1.416A1.306,1.306,0,0,0,274.979,383.773Z" transform="translate(-163.715 -227.401)" fill="#f3bc63"/>
  <path id="Path_108" data-name="Path 108" d="M223.434,321.275l3.828-4.414c1.1-1.26-.742-3.114-1.846-1.846l-3.828,4.414C220.493,320.689,222.331,322.543,223.434,321.275Z" transform="translate(-132.509 -188.368)" fill="#db6653"/>
  <path id="Path_109" data-name="Path 109" d="M218.133,353.3a46.217,46.217,0,0,1,16.623-11.56c1.537-.622.863-3.146-.694-2.516a49.138,49.138,0,0,0-17.775,12.23c-1.136,1.232.7,3.081,1.846,1.846Z" transform="translate(-129.322 -203.055)" fill="#db6653"/>
  <path id="Path_110" data-name="Path 110" d="M227.793,384a45.3,45.3,0,0,1,12.51-5.1c1.629-.4.939-2.913-.694-2.516a47.715,47.715,0,0,0-13.132,5.369A1.3,1.3,0,0,0,227.793,384Z" transform="translate(-135.263 -225.337)" fill="#db6653"/>
  <path id="Path_111" data-name="Path 111" d="M234.121,404.9h3.41a1.3,1.3,0,0,0,0-2.608h-3.41A1.3,1.3,0,0,0,234.121,404.9Z" transform="translate(-139.46 -240.879)" fill="#db6653"/>
</svg>
